<svg width="30" height="30" viewBox="0 0 30 30" fill="none" xmlns="http://www.w3.org/2000/svg">
<path d="M15 0.428574C23.0457 0.428574 29.5714 6.95209 29.5714 15C29.5714 23.0479 23.0457 29.5714 15 29.5714C6.95208 29.5714 0.428558 23.0479 0.428558 15C0.428558 6.95209 6.95208 0.428574 15 0.428574ZM15 2.85715C8.29334 2.85715 2.85713 8.29335 2.85713 15C2.85713 21.7067 8.29334 27.1429 15 27.1429C21.7052 27.1429 27.1428 21.7058 27.1428 15C27.1428 8.29419 21.7052 2.85715 15 2.85715ZM14.3928 7.71439C15.0635 7.71439 15.6071 8.25805 15.6071 8.92868V15.1259L21.5262 17.5171C22.1481 17.7683 22.4485 18.476 22.1973 19.0978C21.9461 19.7196 21.2384 20.02 20.6166 19.7688L13.938 17.0709C13.479 16.8855 13.1786 16.44 13.1786 15.945V8.92868C13.1786 8.25805 13.7222 7.71439 14.3928 7.71439Z" fill="white"/>
</svg>
