<svg width="27" height="19" viewBox="0 0 27 19" fill="none" xmlns="http://www.w3.org/2000/svg">
<path d="M24.7322 16.5714C25.462 16.5714 26.0536 17.0991 26.0536 17.75C26.0536 18.4009 25.462 18.9286 24.7322 18.9286H2.26787C1.53807 18.9286 0.946442 18.4009 0.946442 17.75C0.946442 17.0991 1.53807 16.5714 2.26787 16.5714H24.7322ZM24.7322 8.32144C25.462 8.32144 26.0536 8.84911 26.0536 9.50001C26.0536 10.1509 25.462 10.6786 24.7322 10.6786H2.26787C1.53807 10.6786 0.946442 10.1509 0.946442 9.50001C0.946442 8.84911 1.53807 8.32144 2.26787 8.32144H24.7322ZM24.7322 0.0714417C25.462 0.0714417 26.0536 0.599106 26.0536 1.25001C26.0536 1.90092 25.462 2.42858 24.7322 2.42858H2.26787C1.53807 2.42858 0.946442 1.90092 0.946442 1.25001C0.946442 0.599106 1.53807 0.0714417 2.26787 0.0714417H24.7322Z" fill="white"/>
</svg>
