<svg width="23" height="23" viewBox="0 0 23 23" fill="none" xmlns="http://www.w3.org/2000/svg">
<path d="M21.1662 13.6852C21.9586 13.4046 22.7226 14.1675 22.4431 14.9603C21.8744 16.5739 20.9978 18.0062 19.8112 19.1886C15.393 23.6068 8.23193 23.6061 3.81447 19.1888C-0.604787 14.7721 -0.604787 7.60928 3.81425 3.1906C4.99871 2.00611 6.43138 1.12887 8.04168 0.559225C8.83459 0.278735 9.59851 1.04281 9.31787 1.83566C8.12409 5.20821 8.92409 8.96935 11.4782 11.5252C14.0322 14.0787 17.7953 14.879 21.1662 13.6852ZM10.064 12.9394C7.48786 10.3616 6.37918 6.777 6.90121 3.29579C6.29147 3.66527 5.73163 4.10164 5.22845 4.60483C1.59055 8.24243 1.59055 14.1386 5.22846 17.7744C8.86513 21.4109 14.7599 21.4115 18.3982 17.7731C18.9025 17.2706 19.339 16.7114 19.7083 16.1016C16.227 16.6242 12.6403 15.5154 10.064 12.9394Z" fill="#332E4C"/>
</svg>
