<svg width="30" height="29" viewBox="0 0 30 29" fill="none" xmlns="http://www.w3.org/2000/svg">
<path d="M27.1428 11.5985C27.1428 10.3013 27.0537 9.83953 26.7998 9.36483C26.5955 8.9828 26.3029 8.69023 25.9209 8.48591C25.4462 8.23204 24.9844 8.14286 23.6872 8.14286H2.85713V19.2586C2.85713 20.5558 2.94631 21.0176 3.20018 21.4923C3.4045 21.8744 3.69706 22.1669 4.0791 22.3712C4.5538 22.6251 5.0156 22.7143 6.31278 22.7143H25.4246L23.8556 21.1444C23.3814 20.6701 23.3814 19.9013 23.8556 19.4271C24.3299 18.9529 25.0987 18.9529 25.5729 19.4271L29.2158 23.0699C29.69 23.5442 29.69 24.313 29.2158 24.7872L25.5729 28.4301C25.0987 28.9043 24.3299 28.9043 23.8556 28.4301C23.3814 27.9559 23.3814 27.187 23.8556 26.7128L25.4246 25.1429H6.31278C4.64898 25.1429 3.80842 24.9805 2.93379 24.5128C2.12853 24.0821 1.48929 23.4429 1.05863 22.6376C0.590877 21.763 0.428558 20.9224 0.428558 19.2586V5.71429H0.430987L0.431125 5.64787C0.451882 4.43319 0.601275 3.75533 0.97754 3.05178C1.35528 2.34546 1.91687 1.78387 2.62319 1.40613C3.38538 0.998508 4.1174 0.857147 5.53446 0.857147H19.6084C21.0254 0.857147 21.7575 0.998508 22.5196 1.40613C23.226 1.78387 23.7875 2.34546 24.1653 3.05178C24.5509 3.77277 24.6982 4.46676 24.713 5.73914C25.7392 5.80504 26.3926 5.98411 27.0662 6.34437C27.8714 6.77502 28.5107 7.41426 28.9413 8.21952C29.4091 9.09415 29.5714 9.93471 29.5714 11.5985V16.6429C29.5714 17.3135 29.0278 17.8571 28.3571 17.8571C27.6865 17.8571 27.1428 17.3135 27.1428 16.6429V11.5985ZM22.2857 14.2143C22.9563 14.2143 23.5 14.7579 23.5 15.4286C23.5 16.0992 22.9563 16.6429 22.2857 16.6429H19.8571C19.1865 16.6429 18.6428 16.0992 18.6428 15.4286C18.6428 14.7579 19.1865 14.2143 19.8571 14.2143H22.2857ZM19.6084 3.28572H5.53446C4.48403 3.28572 4.13076 3.35394 3.7685 3.54768C3.4854 3.69908 3.27049 3.91399 3.11909 4.19709C2.94151 4.52912 2.86939 4.85361 2.85859 5.71429H22.2842C22.2734 4.85361 22.2013 4.52912 22.0237 4.19709C21.8723 3.91399 21.6574 3.69908 21.3743 3.54768C21.0121 3.35394 20.6588 3.28572 19.6084 3.28572Z" fill="white"/>
</svg>
