<svg width="30" height="29" viewBox="0 0 30 29" fill="none" xmlns="http://www.w3.org/2000/svg">
<path d="M16.394 0.478048C16.9132 0.561114 17.4043 0.759761 17.8452 1.11254C18.5676 1.69043 18.9116 2.4189 19.1775 3.48242C19.2456 3.75468 19.3633 4.07207 19.5105 4.38011C19.8482 4.52366 20.1785 4.68323 20.5006 4.85816C20.8184 4.77964 21.1236 4.67535 21.3674 4.56187C23.0823 3.76354 24.5209 3.80548 25.699 5.07617C25.7986 5.18365 25.8581 5.25485 25.9876 5.41471L26.7517 6.35838C26.9573 6.61218 27.0451 6.72781 27.1747 6.94358C28.0148 8.34175 27.6872 9.64389 26.6253 11.0549C26.4492 11.289 26.2693 11.5955 26.1188 11.9179C26.2137 12.261 26.2928 12.6089 26.3556 12.9607C26.6261 13.1774 26.9136 13.3673 27.1675 13.4969C28.144 13.9952 28.7764 14.4942 29.177 15.3281C29.4215 15.8371 29.5046 16.3603 29.4688 16.8848C29.4498 17.1621 29.4199 17.3166 29.34 17.6627L29.0668 18.8458C28.9869 19.1919 28.9461 19.3439 28.8416 19.6014C28.6439 20.0886 28.3398 20.5224 27.8969 20.8727C27.1713 21.4466 26.3842 21.6179 25.2881 21.6377C25.0108 21.6427 24.6795 21.6851 24.3499 21.7577C24.1356 22.0538 23.9074 22.3396 23.6662 22.614C23.6703 22.947 23.7034 23.2742 23.7601 23.5418C23.9873 24.6142 23.9975 25.4198 23.6016 26.2558C23.3599 26.7662 23.0056 27.16 22.5754 27.4623C22.348 27.622 22.209 27.696 21.8898 27.8517L20.7984 28.384C20.4792 28.5397 20.3354 28.6036 20.0695 28.6845C19.5665 28.8374 19.038 28.8741 18.487 28.7504C17.5844 28.5476 16.9559 28.0437 16.2507 27.2044C16.0643 26.9825 15.8096 26.741 15.5326 26.5236C15.3556 26.5317 15.178 26.5357 15 26.5357C14.822 26.5357 14.6444 26.5317 14.4674 26.5236C14.1904 26.741 13.9357 26.9825 13.7493 27.2044C13.0441 28.0437 12.4156 28.5476 11.513 28.7504C10.962 28.8741 10.4336 28.8374 9.93053 28.6845C9.66464 28.6036 9.52081 28.5397 9.2016 28.384L8.11021 27.8517C8.01426 27.805 7.95474 27.7755 7.88521 27.7393C6.29261 26.9099 5.82573 25.4965 6.23992 23.5418C6.29662 23.2742 6.32972 22.947 6.33385 22.614C6.09258 22.3396 5.86438 22.0538 5.65009 21.7577C5.32051 21.6851 4.98919 21.6427 4.71193 21.6377C3.61586 21.6179 2.82868 21.4466 2.1031 20.8727C1.66017 20.5224 1.35614 20.0886 1.15842 19.6014C1.05391 19.3439 1.0131 19.1919 0.933205 18.8458L0.66005 17.6627C0.575467 17.2963 0.544307 17.1329 0.528263 16.8361C0.498184 16.2795 0.604682 15.7266 0.887164 15.2021C1.29874 14.4378 1.90795 13.9687 2.83247 13.4969C3.0864 13.3673 3.37391 13.1774 3.6444 12.9607C3.70724 12.6089 3.78631 12.261 3.88125 11.9179C3.73075 11.5955 3.55086 11.289 3.37467 11.0549C2.31279 9.64389 1.98521 8.34175 2.82532 6.94358C2.95497 6.72781 3.04276 6.61218 3.24828 6.35838L4.01245 5.41471C4.1419 5.25485 4.2014 5.18365 4.30104 5.07617C5.47914 3.80548 6.91776 3.76354 8.63263 4.56187C8.87638 4.67535 9.18162 4.77964 9.49946 4.85816C9.82147 4.68323 10.1518 4.52366 10.4895 4.38011C10.6367 4.07207 10.7545 3.75468 10.8225 3.48242C11.0884 2.4189 11.4324 1.69043 12.1548 1.11254C12.5957 0.759761 13.0868 0.561114 13.606 0.478048C13.8255 0.442923 13.9701 0.432335 14.201 0.429504L15.6072 0.428574C15.9623 0.428574 16.1196 0.434142 16.394 0.478048ZM15.7112 2.85739L14.3929 2.85715C13.7857 2.85715 13.4822 2.85715 13.1786 4.07143C13.0101 4.74545 12.6545 5.60652 12.1638 6.34317C11.3835 6.59865 10.6497 6.95669 9.97819 7.40135C9.10783 7.31559 8.22952 7.05305 7.60766 6.76355C6.47294 6.2353 6.2819 6.47122 5.89981 6.94306L5.13563 7.88673C4.75355 8.35857 4.5625 8.59449 5.31514 9.59459C5.73875 10.1575 6.19079 10.9909 6.45295 11.8484C6.18451 12.5761 6.00636 13.3475 5.93209 14.1491C5.32299 14.7979 4.55878 15.3424 3.93639 15.66C2.82151 16.229 2.8898 16.5248 3.02638 17.1164L3.29953 18.2995C3.43611 18.8911 3.5044 19.1869 4.75585 19.2095C5.44778 19.222 6.3623 19.3737 7.18792 19.6836C7.60725 20.3816 8.11747 21.0187 8.70219 21.5786C8.81676 22.4499 8.75866 23.3707 8.61574 24.0452C8.35628 25.2697 8.62913 25.4028 9.17483 25.6689L10.2662 26.2012C10.8119 26.4674 11.0848 26.6004 11.8899 25.6421C12.3414 25.1048 13.0481 24.4795 13.8212 24.0316C14.2071 24.0814 14.6006 24.1071 15 24.1071C15.3995 24.1071 15.7929 24.0814 16.1788 24.0316C16.9519 24.4795 17.6586 25.1048 18.1101 25.6421C18.9153 26.6004 19.1881 26.4674 19.7338 26.2012L20.8252 25.6689C21.3709 25.4028 21.6437 25.2697 21.3843 24.0452C21.2414 23.3707 21.1833 22.4499 21.2978 21.5786C21.8826 21.0187 22.3928 20.3816 22.8121 19.6836C23.6377 19.3737 24.5522 19.222 25.2442 19.2095C26.4956 19.1869 26.5639 18.8911 26.7005 18.2995L26.9736 17.1164C27.1102 16.5248 27.1785 16.229 26.0636 15.66C25.4412 15.3424 24.677 14.7979 24.0679 14.1491C23.9937 13.3475 23.8155 12.5761 23.5471 11.8484C23.8092 10.9909 24.2613 10.1575 24.6849 9.59459C25.4375 8.59449 25.2465 8.35857 24.8644 7.88673L24.1002 6.94306C23.7181 6.47122 23.5271 6.2353 22.3924 6.76355C21.7705 7.05305 20.8922 7.31559 20.0218 7.40135C19.3504 6.95669 18.6165 6.59865 17.8362 6.34317C17.3455 5.60652 16.9899 4.74545 16.8214 4.07143C16.5357 2.92857 16.25 2.86135 15.7112 2.85739ZM15 9.53572C18.0179 9.53572 20.4643 11.9822 20.4643 15C20.4643 18.0178 18.0179 20.4643 15 20.4643C11.9822 20.4643 9.53572 18.0178 9.53572 15C9.53572 11.9822 11.9822 9.53572 15 9.53572ZM15 11.9643C13.3234 11.9643 11.9643 13.3234 11.9643 15C11.9643 16.6766 13.3234 18.0357 15 18.0357C16.6766 18.0357 18.0357 16.6766 18.0357 15C18.0357 13.3234 16.6766 11.9643 15 11.9643Z" fill="white"/>
</svg>
