<?xml version="1.0" encoding="utf-8"?>
<!-- Generator: Adobe Illustrator 25.4.1, SVG Export Plug-In . SVG Version: 6.00 Build 0)  -->
<svg version="1.1" id="Слой_1" xmlns="http://www.w3.org/2000/svg" xmlns:xlink="http://www.w3.org/1999/xlink" x="0px" y="0px"
	 viewBox="0 0 23 26" style="enable-background:new 0 0 23 26;" xml:space="preserve">
<style type="text/css">
	.st0{fill:#F4F4F4;}
	.st1{fill-rule:evenodd;clip-rule:evenodd;fill:#F4F4F4;}
</style>
<path class="st0" d="M12.4,1c0-0.6-0.4-1-1-1c-0.6,0-1,0.4-1,1v3c0,0.6,0.4,1,1,1c0.6,0,1-0.4,1-1V1z"/>
<path class="st0" d="M12.4,22c0-0.6-0.4-1-1-1c-0.6,0-1,0.4-1,1v3c0,0.6,0.4,1,1,1c0.6,0,1-0.4,1-1V22z"/>
<path class="st0" d="M21.3,19.9c0.5,0.3,1.1,0.1,1.4-0.4c0.3-0.5,0.1-1.1-0.4-1.4l-2.6-1.5c-0.5-0.3-1.1-0.1-1.4,0.4
	c-0.3,0.5-0.1,1.1,0.4,1.4L21.3,19.9z"/>
<path class="st0" d="M3.1,9.4C3.6,9.6,4.2,9.5,4.5,9c0.3-0.5,0.1-1.1-0.4-1.4L1.5,6.1C1,5.9,0.4,6,0.1,6.5S0,7.6,0.5,7.9L3.1,9.4z"
	/>
<path class="st0" d="M0.1,19.5C-0.1,19,0,18.4,0.5,18.1l2.6-1.5c0.5-0.3,1.1-0.1,1.4,0.4c0.3,0.5,0.1,1.1-0.4,1.4l-2.6,1.5
	C1,20.1,0.4,20,0.1,19.5L0.1,19.5z"/>
<path class="st0" d="M18.3,9c-0.3-0.5-0.1-1.1,0.4-1.4l2.6-1.5c0.5-0.3,1.1-0.1,1.4,0.4c0.3,0.5,0.1,1.1-0.4,1.4l-2.6,1.5
	C19.2,9.6,18.6,9.5,18.3,9L18.3,9z"/>
<path class="st1" d="M11.4,7c-3.3,0-6,2.7-6,6s2.7,6,6,6c3.3,0,6-2.7,6-6S14.7,7,11.4,7L11.4,7z M7.4,13c0-2.4,1.7-4,4-4
	c2.4,0,4,1.7,4,4s-1.7,4-4,4C9,17,7.4,15.4,7.4,13z"/>
</svg>
