<svg width="29" height="32" viewBox="0 0 29 32" fill="none" xmlns="http://www.w3.org/2000/svg">
<path d="M19.25 8.75C19.25 5.84905 16.9009 3.5 14 3.5C11.0991 3.5 8.75 5.84905 8.75 8.75C8.75 11.6509 11.0991 14 14 14C16.9009 14 19.25 11.6509 19.25 8.75ZM22.25 8.75C22.25 13.3078 18.5578 17 14 17C9.4422 17 5.75 13.3078 5.75 8.75C5.75 4.1922 9.4422 0.5 14 0.5C18.5578 0.5 22.25 4.1922 22.25 8.75ZM3.5 26.9643C3.5 28.3794 3.37981 28.25 4.18382 28.25H24.5662C25.3702 28.25 25.25 28.3794 25.25 26.9643C25.25 23.5321 20.294 21.5 14.375 21.5C8.45603 21.5 3.5 23.5321 3.5 26.9643ZM0.5 26.9643C0.5 21.144 6.94838 18.5 14.375 18.5C21.8016 18.5 28.25 21.144 28.25 26.9643C28.25 29.9889 27.0783 31.25 24.5662 31.25H4.18382C1.67166 31.25 0.5 29.9889 0.5 26.9643Z" fill="white"/>
</svg>
